<?xml version="1.0" standalone="no"?>
<!DOCTYPE svg PUBLIC "-//W3C//DTD SVG 20010904//EN"
 "http://www.w3.org/TR/2001/REC-SVG-20010904/DTD/svg10.dtd">
<svg version="1.0" xmlns="http://www.w3.org/2000/svg"
 width="1151.000000pt" height="1280.000000pt" viewBox="0 0 1151.000000 1280.000000"
 preserveAspectRatio="xMidYMid meet">
<g transform="translate(0.000000,1280.000000) scale(0.100000,-0.100000)"
fill="#9c27b0" stroke="none">
<path d="M1545 12751 c-22 -10 -53 -35 -68 -55 -41 -53 -54 -58 -142 -45 -64
9 -83 8 -116 -5 -22 -9 -52 -16 -67 -16 -17 0 -38 -10 -52 -25 -13 -14 -57
-51 -97 -82 -62 -48 -79 -68 -102 -119 l-28 -61 -109 -55 c-91 -46 -114 -62
-140 -101 -18 -26 -37 -68 -43 -95 -9 -42 -7 -57 14 -115 14 -37 28 -92 31
-123 4 -30 11 -57 15 -60 5 -3 9 -18 9 -33 0 -52 61 -194 115 -266 12 -16 25
-42 29 -56 8 -34 85 -120 143 -160 26 -17 71 -40 102 -51 104 -39 231 -119
231 -146 0 -21 -47 -32 -139 -32 -59 0 -101 -5 -127 -16 -38 -16 -38 -17 -16
-27 17 -8 42 -7 90 3 37 7 105 15 151 17 78 4 85 3 110 -21 14 -14 57 -39 94
-56 39 -17 67 -36 65 -43 -8 -24 -110 -67 -160 -67 -48 0 -63 -12 -31 -24 31
-12 107 6 180 42 l71 36 44 -30 c23 -16 51 -32 61 -36 28 -12 15 -32 -26 -41
-20 -5 -37 -14 -37 -19 0 -6 10 -8 23 -4 13 3 64 -1 113 -9 298 -51 507 -20
638 94 52 45 57 45 126 11 49 -24 108 -33 230 -36 154 -3 189 -10 268 -49 39
-19 78 -35 87 -35 8 0 15 -7 15 -15 0 -9 12 -18 30 -22 17 -3 38 -15 48 -27 9
-12 43 -35 75 -51 33 -16 75 -44 95 -63 21 -18 76 -64 124 -101 106 -83 176
-149 184 -173 3 -10 14 -18 25 -18 10 0 36 -18 56 -41 57 -61 197 -207 253
-264 28 -27 50 -55 50 -61 0 -6 14 -26 31 -45 17 -19 43 -52 57 -74 15 -22 43
-59 64 -83 20 -24 39 -56 43 -71 6 -30 26 -60 65 -100 31 -31 188 -270 239
-361 26 -48 41 -79 41 -88 0 -6 19 -37 41 -70 33 -47 40 -66 35 -86 -10 -40
-35 -32 -114 34 -39 33 -76 60 -81 60 -6 0 -11 4 -11 9 0 5 -10 13 -22 17 -13
3 -44 26 -70 50 -26 24 -54 44 -62 44 -8 0 -37 18 -65 40 -28 22 -54 40 -59
40 -5 0 -19 12 -33 26 -13 14 -42 35 -63 46 -22 11 -48 30 -57 42 -10 11 -18
17 -19 13 0 -9 -103 44 -108 56 -2 4 -10 7 -18 7 -8 0 -14 5 -14 10 0 13 -49
34 -71 31 -9 -1 -19 5 -22 14 -4 8 -19 15 -34 15 -15 0 -50 12 -78 25 -27 14
-56 25 -62 25 -7 0 -23 10 -34 21 -14 14 -37 22 -69 25 -26 2 -67 10 -91 19
-24 9 -55 19 -69 22 -14 2 -34 8 -45 13 -19 8 -48 14 -120 24 -16 2 -64 11
-105 20 -41 9 -87 16 -102 16 -16 0 -28 3 -28 8 0 11 -51 32 -77 32 -13 0 -38
7 -56 17 -18 9 -45 20 -62 24 -60 15 -108 37 -116 52 -7 12 -32 15 -135 15
-77 0 -130 4 -136 10 -6 6 -15 37 -19 68 -5 39 -15 65 -32 83 -14 14 -33 42
-42 61 -17 33 -56 97 -113 183 -14 20 -27 35 -29 33 -9 -8 19 -80 45 -119 15
-23 22 -41 16 -47 -17 -17 -174 10 -215 37 -35 23 -137 138 -170 191 -16 26
-29 29 -29 6 0 -22 35 -78 87 -141 76 -91 59 -108 -105 -100 -169 8 -253 39
-349 130 -30 28 -69 75 -86 104 -34 57 -47 66 -47 32 0 -40 122 -198 154 -199
5 0 26 -16 47 -35 28 -25 48 -35 72 -35 21 0 41 -8 52 -20 10 -11 24 -20 32
-20 21 0 15 -26 -9 -42 -13 -8 -36 -17 -53 -20 -16 -3 -44 -11 -61 -18 -45
-19 -75 -6 -106 45 -15 25 -32 45 -38 45 -15 0 -12 -42 6 -85 27 -65 19 -69
-109 -60 -184 13 -389 12 -415 -3 -30 -17 -22 -27 41 -48 40 -14 76 -18 157
-15 226 7 214 7 218 -12 2 -10 -4 -20 -15 -23 -66 -22 -122 -57 -132 -83 -7
-15 -25 -38 -42 -50 -26 -19 -29 -28 -29 -74 0 -47 5 -59 36 -95 55 -65 28
-79 -77 -41 -54 20 -97 20 -85 1 10 -17 211 -72 261 -72 13 0 27 -5 30 -10 4
-6 14 -10 23 -8 10 1 33 -9 52 -24 19 -14 48 -30 63 -34 54 -13 44 -54 -14
-54 -15 0 -31 -6 -37 -13 -6 -6 -51 -32 -100 -56 -62 -30 -95 -53 -107 -73
-22 -37 -16 -42 26 -25 19 8 61 25 94 37 33 12 69 26 80 31 42 18 134 36 162
32 15 -3 64 -23 108 -44 96 -48 246 -89 322 -89 69 0 209 35 245 60 45 33 54
26 73 -52 22 -92 34 -116 46 -97 13 20 10 74 -6 149 -13 60 -13 67 3 90 10 14
26 42 35 63 10 20 22 37 27 37 4 0 29 -42 54 -92 41 -84 46 -90 46 -58 0 19
-15 79 -34 132 -42 119 -39 124 65 114 86 -8 182 7 252 38 28 13 74 31 100 40
27 9 63 24 80 33 24 12 54 16 117 15 177 -4 278 -10 296 -20 53 -28 257 -113
400 -167 33 -12 97 -45 143 -71 45 -27 103 -61 129 -77 26 -15 62 -34 80 -43
19 -8 60 -34 93 -57 32 -23 80 -55 106 -72 27 -16 76 -51 109 -77 34 -26 66
-48 70 -48 5 0 24 -13 43 -29 44 -36 37 -56 -24 -64 -26 -4 -77 -22 -113 -41
-43 -22 -100 -40 -157 -51 -151 -28 -160 -31 -189 -75 -14 -22 -32 -40 -39
-40 -8 0 -34 33 -60 73 -80 126 -166 178 -308 185 -72 4 -92 1 -126 -16 -47
-24 -49 -28 -58 -108 -9 -68 -12 -74 -72 -114 -67 -46 -93 -57 -160 -70 -85
-17 -124 -44 -182 -127 -66 -93 -111 -120 -221 -133 -126 -14 -156 -39 -190
-160 -19 -69 -42 -76 -87 -26 -43 47 -132 80 -193 71 -73 -11 -124 -39 -194
-108 -58 -58 -72 -67 -123 -77 -32 -7 -73 -17 -92 -22 -45 -14 -151 -118 -195
-191 -23 -38 -50 -69 -80 -87 -60 -39 -75 -64 -92 -160 -16 -92 -53 -171 -99
-207 -17 -13 -62 -38 -100 -54 -38 -16 -73 -36 -78 -44 -4 -8 -12 -15 -17 -15
-5 0 -29 -13 -53 -30 -58 -39 -99 -118 -122 -235 -27 -138 -16 -200 65 -378
15 -35 19 -57 14 -80 -8 -37 -39 -102 -65 -136 -16 -20 -19 -41 -19 -127 0
-146 35 -286 88 -354 46 -58 41 -88 -23 -150 -64 -60 -100 -126 -140 -255 -16
-49 -34 -99 -42 -110 -7 -11 -13 -32 -13 -48 0 -32 -13 -60 -45 -98 -31 -38
-73 -182 -76 -259 -6 -139 62 -262 181 -332 89 -52 147 -78 198 -88 24 -4 45
-10 49 -13 3 -3 13 -39 23 -79 38 -155 62 -221 102 -283 23 -36 45 -65 49 -65
5 0 21 -18 36 -41 15 -22 56 -63 92 -90 60 -45 70 -49 121 -49 31 0 64 -6 75
-13 11 -7 46 -20 79 -27 71 -17 208 -1 265 31 95 53 124 74 153 110 17 21 39
39 49 39 10 0 47 -29 82 -64 59 -59 66 -69 72 -118 20 -162 44 -251 119 -456
31 -83 73 -159 158 -285 10 -15 17 -31 14 -36 -9 -15 -93 -7 -112 11 -31 27
-88 46 -140 45 -27 0 -75 8 -106 18 -54 17 -59 17 -76 2 -14 -13 -39 -17 -108
-17 -49 0 -107 -5 -129 -11 -22 -7 -65 -13 -95 -16 -78 -5 -97 -11 -118 -33
-15 -16 -37 -21 -110 -26 -51 -4 -92 -11 -92 -16 0 -12 -56 -34 -110 -43 -60
-9 -138 -45 -143 -66 -5 -18 -83 -59 -111 -59 -21 0 -113 -57 -119 -75 -3 -7
-39 -29 -80 -49 -62 -29 -75 -40 -80 -63 -4 -21 -17 -34 -49 -50 -54 -27 -113
-87 -105 -107 4 -9 -16 -32 -58 -68 -36 -29 -69 -65 -74 -79 -5 -14 -25 -43
-45 -65 -23 -25 -36 -49 -36 -66 0 -19 -8 -33 -28 -45 -40 -24 -52 -43 -52
-79 0 -25 -6 -34 -29 -44 -45 -18 -120 -115 -121 -156 0 -12 -14 -38 -30 -59
-17 -21 -30 -47 -30 -58 0 -11 -18 -39 -40 -63 -27 -29 -40 -53 -40 -71 0 -16
-16 -59 -35 -97 -19 -39 -35 -78 -35 -87 0 -9 -16 -41 -36 -70 -33 -49 -64
-103 -64 -111 0 -2 42 -3 92 -3 90 0 93 -1 96 -24 4 -23 6 -23 66 -19 35 3 70
1 79 -4 19 -10 92 2 145 23 25 11 37 11 52 2 15 -10 34 -9 96 7 89 23 117 25
143 8 19 -12 51 -6 141 27 34 12 49 14 62 6 28 -17 41 -14 131 34 87 46 124
54 145 33 15 -15 84 5 136 40 l39 27 14 -22 15 -22 66 41 c37 23 74 47 83 55
18 15 65 17 74 3 11 -17 29 -11 99 31 47 28 76 39 93 36 31 -6 123 38 181 87
48 39 53 41 69 25 20 -20 68 1 132 56 35 32 72 55 85 55 12 0 37 16 57 36 18
19 49 45 68 56 28 18 37 19 53 9 17 -11 25 -7 63 28 25 23 50 38 58 35 8 -3
33 14 60 40 25 26 54 46 66 46 12 0 30 16 48 42 16 24 39 48 51 54 35 17 62
46 62 65 0 10 8 23 19 28 10 6 31 36 46 68 15 32 34 72 43 88 23 47 32 98 20
113 -20 23 6 37 41 22 21 -8 52 -10 100 -5 68 7 111 -3 111 -25 0 -6 -19 -29
-41 -51 -23 -23 -54 -69 -69 -103 -18 -38 -49 -81 -83 -113 -34 -34 -59 -68
-68 -95 -7 -23 -23 -53 -35 -67 -12 -14 -37 -55 -55 -91 -18 -36 -50 -85 -71
-109 -27 -31 -38 -53 -38 -77 0 -17 -13 -61 -30 -96 -20 -41 -29 -77 -28 -103
1 -29 -7 -53 -27 -85 -19 -30 -30 -64 -34 -105 -4 -33 -14 -71 -23 -85 -17
-27 -33 -87 -29 -109 1 -7 -9 -40 -24 -73 -18 -40 -24 -68 -20 -86 4 -18 -2
-44 -14 -73 -13 -27 -21 -66 -21 -101 0 -31 -5 -69 -11 -85 -23 -57 -37 -137
-28 -154 5 -11 4 -33 -5 -62 -12 -39 -12 -47 2 -61 14 -13 13 -21 -11 -74 -23
-51 -27 -76 -32 -193 -4 -123 -11 -173 -31 -238 -6 -21 -5 -23 17 -16 47 15
145 36 167 36 13 -1 50 13 83 29 46 24 68 29 93 25 25 -5 50 1 101 24 37 17
80 31 94 30 14 -1 49 10 76 24 32 16 61 23 80 20 25 -4 44 6 109 56 44 34 89
63 100 66 12 2 36 6 54 9 19 3 52 20 74 38 22 17 56 42 76 56 21 14 43 33 50
43 9 13 25 19 51 19 38 0 55 14 103 92 10 16 26 28 36 28 20 0 55 34 65 62 3
9 18 18 34 20 28 3 37 17 97 148 7 14 20 27 31 29 25 4 42 27 55 72 17 62 55
124 76 124 13 0 24 14 37 50 11 28 25 64 32 80 26 59 65 164 65 174 0 6 11 16
24 22 29 14 36 35 36 114 0 41 6 68 17 85 14 19 19 51 22 139 3 92 7 120 22
140 23 32 25 56 16 156 -14 138 -17 151 -68 231 -63 101 -58 109 55 88 44 -9
91 -21 105 -28 14 -8 44 -16 66 -20 60 -11 403 -123 447 -147 10 -5 23 -9 29
-9 16 0 330 -156 358 -178 32 -26 19 -42 -32 -42 -23 -1 -53 -7 -66 -14 l-23
-13 32 -7 c18 -3 43 -6 57 -6 43 0 197 -87 273 -155 14 -12 48 -37 75 -56 28
-18 97 -81 155 -139 58 -59 128 -120 155 -137 102 -61 141 -81 182 -92 70 -19
104 -87 68 -135 -19 -25 -21 -56 -3 -38 7 7 19 12 29 12 20 0 69 -68 69 -97 0
-12 4 -24 9 -28 9 -5 57 -97 70 -135 4 -8 19 -37 35 -63 22 -37 27 -56 23 -82
-5 -31 -3 -34 21 -37 23 -3 34 -19 84 -118 59 -118 76 -156 99 -224 9 -26 33
-55 69 -85 30 -25 73 -65 96 -89 23 -23 44 -42 46 -42 3 0 8 81 12 180 l7 180
-51 52 c-52 52 -125 156 -169 238 -13 25 -35 63 -48 85 -13 22 -36 65 -50 95
-14 30 -39 74 -55 97 -15 23 -28 44 -28 48 0 3 -9 26 -20 51 -16 35 -18 49 -9
65 6 11 9 22 7 23 -2 1 -16 7 -32 14 -23 10 -27 17 -22 37 5 18 2 25 -9 25
-14 0 -65 87 -65 111 0 7 -15 30 -33 53 -40 49 -57 79 -57 101 0 9 -16 40 -35
69 -19 29 -35 57 -35 63 0 5 -11 24 -25 43 -14 19 -25 44 -25 56 0 13 -5 26
-10 29 -6 4 -8 15 -5 25 4 13 -4 23 -30 38 -25 16 -35 28 -35 47 0 20 5 25 28
26 26 0 26 1 -7 13 -19 7 -47 28 -62 47 -29 38 -132 230 -144 269 -4 14 -22
57 -41 96 -19 39 -36 82 -37 95 -1 13 -9 31 -18 39 -8 8 -24 34 -34 58 -16 36
-17 50 -7 95 6 28 14 75 18 102 9 76 42 194 69 245 13 25 27 58 30 74 3 16 19
41 36 57 16 15 29 30 29 33 0 3 15 20 33 39 75 78 113 124 126 152 7 17 17 38
22 47 5 10 9 27 9 38 0 11 7 23 15 26 9 4 13 13 10 24 -3 9 1 23 10 30 8 7 18
30 21 52 4 25 17 49 36 66 16 15 35 38 43 52 24 45 91 111 107 105 9 -4 21
-32 29 -68 9 -42 21 -69 38 -85 14 -13 31 -38 37 -55 6 -18 19 -34 30 -36 30
-5 44 -21 44 -52 0 -43 27 -103 52 -114 12 -6 27 -26 34 -46 19 -57 56 -108
87 -118 20 -8 35 -26 56 -73 18 -41 37 -67 52 -73 14 -6 37 -34 54 -67 22 -43
36 -58 54 -60 17 -2 27 -12 34 -33 15 -47 46 -85 67 -82 13 1 36 -20 73 -68
47 -61 58 -70 87 -71 20 -1 38 -8 47 -20 31 -44 66 -74 85 -74 12 0 46 -21 76
-46 43 -35 61 -44 79 -39 20 5 36 -6 88 -56 43 -41 66 -57 69 -48 2 8 7 25 10
39 9 40 89 154 111 158 33 7 43 21 55 80 16 78 27 102 45 102 20 0 41 49 50
115 10 74 14 85 34 85 30 0 44 48 45 156 1 68 6 107 15 117 13 16 11 106 -4
188 -4 23 -3 39 4 43 16 10 14 50 -6 133 -16 69 -16 73 2 93 16 17 16 24 6 48
-11 24 -23 125 -25 217 -1 48 26 42 88 -18 31 -30 56 -58 56 -63 0 -15 138
-153 169 -168 15 -8 38 -12 51 -9 18 5 33 -4 74 -48 55 -59 96 -89 121 -89 9
0 43 -20 75 -45 32 -25 65 -45 73 -45 8 0 50 -17 93 -39 77 -37 165 -69 251
-91 23 -6 46 -16 50 -23 4 -7 43 -36 86 -65 85 -56 127 -66 127 -31 0 11 6 30
13 42 8 15 12 75 12 194 0 166 1 172 25 205 25 34 36 87 44 208 8 121 5 325
-6 370 -6 25 -12 95 -12 156 -2 94 -5 115 -24 146 -14 22 -22 51 -22 80 0 35
-8 55 -35 94 -29 40 -35 58 -35 99 0 32 -9 68 -24 100 -13 27 -31 70 -41 95
-27 72 -58 129 -82 152 -13 12 -25 37 -28 57 -12 73 -16 81 -56 118 -23 21
-50 56 -61 78 -12 22 -40 65 -63 95 -47 61 -75 111 -75 134 0 16 13 21 80 31
111 16 287 58 365 88 166 63 228 93 236 115 6 15 31 33 71 51 35 15 91 46 125
68 35 23 78 44 96 47 27 5 38 15 56 51 12 25 31 47 44 51 12 3 36 18 52 33 45
40 102 81 114 81 6 0 10 14 9 31 -2 20 3 34 12 39 8 4 47 23 85 41 39 19 79
43 90 54 11 12 40 36 65 55 25 19 66 55 91 80 25 25 59 56 75 70 48 42 188
199 196 221 4 11 23 26 41 34 31 13 137 120 242 245 25 30 63 73 84 95 42 44
91 115 91 131 0 6 11 16 25 22 14 6 25 18 25 26 0 8 24 28 53 45 99 59 103 67
45 97 -20 10 -74 19 -147 24 -90 6 -128 13 -171 32 -103 46 -370 60 -553 28
-66 -11 -133 -20 -150 -20 -18 -1 -50 -8 -72 -16 -22 -9 -98 -31 -170 -49 -71
-18 -170 -47 -220 -64 -49 -17 -115 -39 -145 -48 -30 -9 -77 -27 -105 -40 -27
-13 -60 -23 -73 -23 -56 0 -445 -184 -599 -283 -24 -15 -47 -27 -53 -27 -5 0
-27 -15 -47 -33 -21 -18 -65 -50 -97 -72 -33 -22 -114 -94 -180 -160 -105
-105 -204 -185 -228 -185 -4 0 -25 -24 -47 -52 -21 -29 -56 -71 -77 -93 -20
-22 -50 -66 -66 -97 -16 -32 -36 -58 -43 -58 -19 0 -55 48 -55 74 0 26 -35 85
-55 92 -8 4 -15 15 -15 25 0 37 -48 116 -74 123 -17 4 -31 20 -44 49 -25 57
-47 75 -73 59 -25 -16 -37 -8 -55 32 -27 62 -69 111 -97 114 -14 2 -48 22 -74
45 -81 71 -81 71 -99 56 -17 -14 -50 1 -114 53 -19 15 -41 28 -50 28 -8 0 -28
9 -45 20 -16 11 -46 20 -66 20 -23 0 -51 10 -80 30 -48 32 -69 37 -69 16 0 -7
-7 -20 -16 -27 -13 -11 -24 -10 -64 4 -59 21 -94 22 -110 2 -7 -8 -24 -15 -39
-15 -38 0 -169 36 -187 51 -17 14 -15 44 7 114 34 110 16 361 -34 467 -46 98
-57 130 -57 169 0 27 5 39 18 43 16 4 115 10 137 7 21 -2 115 -69 153 -107 21
-22 67 -55 102 -73 36 -18 74 -41 85 -51 11 -9 41 -29 67 -44 25 -15 54 -38
62 -51 9 -14 39 -36 66 -50 43 -22 62 -25 155 -25 84 0 113 4 143 19 38 20 42
24 113 104 23 26 52 50 64 53 12 3 46 -3 76 -14 45 -16 67 -17 134 -10 44 4
161 8 260 7 243 -1 272 6 347 85 32 33 67 77 78 97 10 19 36 47 57 61 51 35
93 76 93 91 0 16 55 77 70 77 6 0 38 23 71 50 33 28 61 50 63 50 2 0 41 14 87
32 59 22 110 33 171 38 78 5 91 9 127 38 22 18 47 32 56 32 26 0 135 109 135
135 0 12 7 42 15 65 11 30 12 47 5 55 -6 8 -10 77 -9 176 0 129 -3 172 -15
201 -26 62 -15 174 27 288 25 66 39 84 77 100 17 7 45 36 65 66 20 29 40 56
45 59 5 3 17 20 25 38 9 18 38 50 66 72 48 38 90 107 127 210 11 30 26 415 25
613 -1 119 -10 148 -85 256 -26 38 -48 76 -48 84 0 32 -50 99 -110 147 -34 28
-87 71 -117 97 -59 51 -130 88 -166 88 -13 0 -31 8 -40 18 -18 20 -40 129 -36
181 5 65 -8 108 -72 249 -16 35 -29 65 -29 68 0 2 -16 37 -35 77 -19 39 -35
78 -35 84 0 7 -9 18 -21 25 -25 16 -77 90 -85 124 -8 30 -77 103 -131 137 -22
14 -73 35 -113 47 -64 19 -78 20 -117 10 -43 -13 -44 -12 -118 36 -41 27 -74
53 -75 57 0 10 -42 52 -161 160 -77 70 -116 96 -193 132 -52 25 -100 45 -105
45 -5 0 -34 12 -65 26 -63 29 -83 28 -157 -11 -44 -23 -112 -65 -135 -84 -5
-4 -21 -14 -35 -21 -13 -7 -53 -36 -89 -63 l-65 -50 -195 6 c-107 3 -208 10
-225 16 -16 5 -57 17 -90 26 -130 34 -167 46 -222 69 -74 30 -218 51 -255 37
-37 -14 -45 -34 -58 -137 -14 -114 -25 -129 -95 -144 -30 -6 -61 -10 -68 -7
-6 2 -43 -5 -82 -16 -38 -11 -104 -22 -146 -24 -68 -4 -85 -1 -185 35 -60 22
-118 43 -129 46 -38 11 -216 -49 -291 -99 -56 -37 -82 -68 -104 -125 -27 -68
-62 -120 -103 -156 -47 -40 -182 -115 -240 -134 -30 -9 -47 -26 -82 -78 -25
-37 -45 -72 -45 -78 0 -7 -9 -31 -20 -55 -16 -36 -20 -66 -20 -160 0 -99 5
-135 35 -252 52 -204 52 -224 13 -283 -45 -67 -59 -99 -109 -247 -39 -112 -48
-130 -76 -147 -17 -10 -39 -31 -49 -47 -10 -15 -28 -39 -40 -53 -13 -14 -33
-54 -46 -90 -17 -49 -28 -66 -44 -68 -24 -3 -35 16 -79 138 -14 41 -30 79 -34
85 -5 5 -9 24 -9 42 0 17 -6 42 -13 55 -10 16 -13 76 -12 212 1 165 -2 195
-18 233 -10 25 -19 53 -19 63 0 10 -8 21 -19 25 -10 3 -26 14 -36 24 -16 19
-15 22 10 65 15 25 24 50 20 56 -3 5 1 13 9 16 9 3 16 10 16 15 0 5 11 33 25
63 21 45 25 70 25 141 0 48 -6 110 -14 138 -8 29 -17 64 -20 79 -5 24 -10 27
-34 22 -25 -5 -31 0 -57 40 -16 26 -44 55 -63 66 -18 11 -41 33 -50 50 -11 20
-25 30 -41 30 -13 0 -40 13 -60 29 -20 16 -58 41 -85 55 -46 24 -176 148 -176
167 0 5 -15 42 -34 82 -58 125 -60 132 -62 152 -1 11 -5 61 -9 110 -8 108 -12
135 -25 135 -14 0 -23 -40 -21 -90 3 -72 64 -291 107 -385 29 -64 39 -105 27
-105 -6 0 -35 27 -66 60 -47 51 -60 60 -90 60 -39 0 -50 9 -70 65 -19 50 -143
325 -151 333 -3 3 -6 -8 -6 -24 1 -37 29 -120 74 -219 20 -43 36 -84 36 -92 0
-7 -11 -19 -25 -25 -24 -11 -30 -22 -37 -73 -5 -32 -31 -28 -73 11 -78 71
-137 114 -156 114 -24 0 -24 -1 1 -42 11 -20 52 -55 95 -83 41 -27 75 -53 75
-57 0 -4 7 -8 15 -8 23 0 35 -34 35 -99 0 -53 -3 -61 -19 -61 -10 0 -36 20
-57 44 -40 44 -81 72 -92 62 -3 -4 14 -24 39 -46 119 -106 139 -143 139 -262
0 -52 -3 -68 -14 -68 -30 0 -48 14 -81 66 -34 53 -80 93 -92 80 -14 -13 31
-76 108 -153 l79 -78 0 -74 c0 -56 -4 -79 -17 -93 -16 -18 -15 -19 5 -34 12
-8 22 -19 22 -25 0 -5 9 -28 19 -52 10 -23 30 -67 43 -97 27 -60 74 -114 128
-145 98 -57 94 -50 70 -136 -11 -40 -20 -85 -20 -98 0 -22 2 -23 13 -11 8 8
26 47 42 85 16 39 32 75 37 82 5 6 33 17 61 23 45 9 53 9 64 -7 7 -9 13 -32
13 -50 0 -37 37 -143 50 -143 5 0 19 -9 32 -20 60 -51 116 -94 155 -121 63
-44 88 -70 102 -109 8 -19 26 -46 41 -60 28 -25 100 -169 100 -199 0 -10 4
-21 9 -26 5 -6 14 -27 21 -47 6 -21 15 -38 20 -38 9 0 30 -62 30 -87 0 -6 -9
-15 -20 -18 -11 -4 -31 -23 -45 -43 -21 -30 -24 -44 -19 -82 6 -46 -13 -118
-39 -150 -15 -17 -40 -127 -43 -185 -3 -64 -3 -65 -18 -65 -8 0 -28 23 -45 50
-17 28 -38 53 -46 56 -8 4 -29 32 -46 64 -17 33 -44 71 -60 87 -17 15 -41 49
-54 75 -14 26 -49 72 -80 102 -30 30 -66 73 -79 95 -14 22 -42 52 -63 67 -21
16 -92 82 -159 149 -137 136 -192 185 -210 185 -6 0 -14 6 -17 14 -3 8 -37 36
-74 61 -110 75 -138 96 -141 106 -2 5 -11 9 -20 9 -9 0 -34 16 -55 35 -21 19
-42 35 -47 35 -10 0 -81 47 -90 59 -3 4 -20 13 -38 20 -18 8 -39 26 -47 41 -8
15 -28 33 -44 40 -23 9 -39 31 -73 98 -42 86 -76 128 -156 190 -48 38 -52 56
-18 91 37 41 68 105 96 201 14 48 14 65 3 130 -37 216 -58 305 -76 325 -6 6
-7 -12 -3 -47 11 -89 -16 -84 -79 16 -30 46 -100 105 -168 142 -56 29 -57 29
-54 2 1 -17 -4 -24 -20 -26 -24 -4 -44 31 -57 99 -3 21 -15 48 -25 60 -10 13
-30 45 -45 72 -42 71 -107 132 -178 166 -81 39 -293 121 -312 121 -8 0 -36 29
-63 65 -35 48 -63 73 -104 95 -65 34 -70 35 -124 11z m3078 -3391 c14 -11 51
-33 84 -48 121 -59 202 -120 274 -207 34 -42 36 -48 42 -140 3 -53 10 -101 15
-108 5 -7 12 -43 16 -82 13 -137 13 -130 -14 -133 -32 -5 -89 13 -117 37 -16
13 -31 49 -48 111 -14 55 -33 101 -45 112 -11 10 -20 25 -20 32 0 7 -9 24 -19
38 -11 14 -28 45 -37 69 -10 24 -25 51 -33 59 -8 8 -28 43 -44 78 -16 35 -38
69 -48 75 -11 7 -19 21 -19 33 0 11 -9 29 -20 39 -23 21 -27 55 -6 55 7 0 25
-9 39 -20z m548 -503 c14 -23 38 -63 53 -89 14 -26 47 -64 71 -85 48 -40 54
-53 30 -73 -8 -6 -24 -37 -35 -68 -24 -65 -45 -92 -71 -92 -22 0 -36 40 -49
145 -6 44 -22 126 -36 182 -14 56 -23 107 -19 113 12 19 30 9 56 -33z m269
-229 c0 -6 -12 -35 -26 -64 -31 -63 -34 -139 -9 -178 10 -14 39 -41 66 -61 52
-37 57 -46 35 -64 -17 -14 -123 -51 -147 -51 -27 0 -34 35 -31 165 3 140 21
222 54 247 26 20 58 24 58 6z m2818 -2458 c13 -16 45 -41 72 -55 28 -14 50
-29 50 -34 0 -5 -19 -25 -42 -46 -24 -20 -81 -74 -129 -119 -97 -92 -203 -169
-227 -164 -19 4 -26 29 -18 64 5 17 25 34 74 58 66 34 94 57 124 106 14 23 18
43 34 155 10 77 25 85 62 35z m188 -211 c14 -28 22 -55 17 -60 -4 -4 -43 -19
-85 -32 -91 -29 -187 -95 -218 -149 -27 -48 -37 -53 -66 -37 -29 15 -31 43 -5
61 10 7 21 22 25 33 3 11 30 35 60 54 30 19 87 67 127 107 91 92 108 94 145
23z m-557 -213 c25 -30 1 -62 -87 -122 -100 -67 -169 -118 -252 -189 -176
-150 -238 -192 -267 -181 -17 7 -11 65 14 129 14 34 14 39 -1 56 -9 10 -23 49
-30 87 -18 92 -23 101 -57 113 -25 8 -29 15 -29 45 0 48 16 47 93 -8 93 -66
160 -96 211 -96 82 0 233 69 319 146 40 36 67 43 86 20z m-179 -322 c0 -9 -8
-44 -17 -80 -15 -56 -16 -72 -4 -141 28 -165 23 -253 -13 -253 -16 0 -97 45
-147 82 -28 21 -41 23 -165 23 -74 0 -134 3 -134 8 -1 4 3 13 7 20 10 16 120
109 157 132 31 20 76 57 114 93 13 13 50 41 82 63 32 21 63 46 70 54 16 20 50
19 50 -1z m-1247 -1369 c-5 -64 -4 -75 11 -81 9 -3 21 -15 27 -26 18 -33 -12
-64 -78 -83 -32 -10 -71 -23 -88 -30 -88 -40 -103 -44 -115 -30 -13 16 -12 19
44 95 101 137 179 230 192 230 11 0 13 -14 7 -75z m-722 29 c24 -7 43 -58 31
-81 -6 -10 -13 -65 -16 -123 -3 -58 -11 -130 -17 -160 -7 -30 -11 -89 -10
-131 2 -71 0 -78 -33 -126 -19 -28 -42 -67 -50 -87 -19 -46 -42 -46 -62 2 -9
20 -21 46 -27 57 -5 11 -12 37 -13 58 -2 23 -14 51 -29 69 -14 16 -25 37 -25
46 0 9 -9 30 -20 47 -38 58 -36 103 8 217 22 57 46 126 53 153 18 76 21 78
114 71 44 -4 87 -9 96 -12z m559 -18 c0 -37 -130 -194 -149 -181 -12 7 -15
115 -5 153 7 25 46 40 112 41 30 1 42 -3 42 -13z m-227 -16 c51 0 49 -22 -7
-80 -25 -25 -60 -72 -78 -105 -23 -41 -40 -60 -53 -60 -19 0 -20 6 -17 110 3
98 6 112 25 128 16 14 31 17 57 13 19 -3 52 -6 73 -6z m-725 -503 c13 -16 42
-93 49 -132 3 -16 14 -41 24 -54 11 -13 19 -29 19 -36 0 -7 13 -42 30 -78 16
-36 36 -83 44 -104 27 -72 57 -158 67 -193 12 -40 27 -78 40 -100 5 -8 16 -31
25 -50 9 -19 26 -58 39 -86 13 -28 36 -85 50 -127 14 -43 39 -98 55 -124 17
-26 30 -55 30 -64 0 -10 4 -20 9 -24 5 -3 17 -28 27 -57 13 -40 14 -55 5 -70
-15 -24 -14 -28 8 -28 26 0 35 -13 82 -125 47 -115 55 -140 42 -148 -18 -11
-134 68 -210 142 -109 108 -152 141 -180 141 -25 0 -25 -1 8 -23 24 -16 47
-49 76 -107 23 -47 43 -91 43 -98 0 -28 -33 -22 -106 20 -195 109 -284 152
-417 200 -78 28 -164 59 -192 69 -27 10 -59 18 -71 19 -11 0 -24 4 -30 10 -9
9 -170 57 -334 99 -47 12 -98 26 -115 31 -16 4 -61 14 -98 20 -46 8 -78 21
-95 36 -26 24 -27 24 -8 39 11 8 28 15 37 15 28 0 68 21 74 39 3 9 52 39 108
67 65 33 103 58 106 70 3 19 44 60 92 95 16 11 29 29 29 39 0 10 15 27 35 39
28 16 35 26 35 52 0 18 7 37 15 43 8 6 17 22 20 35 7 36 33 71 54 71 20 0 90
47 136 91 17 16 48 44 69 62 21 17 44 44 51 60 11 27 194 237 206 237 4 0 11
-6 17 -13z m-1850 -361 c31 -21 69 -42 85 -49 27 -12 35 -31 17 -42 -17 -11
-11 -86 10 -120 11 -17 26 -63 34 -102 15 -68 51 -154 68 -161 4 -2 8 -16 8
-32 0 -24 -6 -30 -37 -40 -21 -6 -61 -18 -89 -27 -56 -18 -133 -12 -289 21
-38 8 -104 19 -145 26 -90 13 -110 29 -110 84 0 51 -38 144 -62 152 -10 3 -25
19 -34 36 -10 19 -34 39 -67 54 -85 41 -152 82 -152 94 0 6 26 22 58 35 32 13
68 32 79 42 17 15 38 18 132 18 128 0 284 20 324 41 42 23 104 12 170 -30z"/>
<path d="M2423 12379 c-6 -15 -8 -32 -3 -40 7 -11 10 -10 15 3 4 9 5 27 3 39
-3 23 -3 23 -15 -2z"/>
<path d="M4127 12383 c-12 -12 -7 -35 25 -116 33 -84 51 -90 24 -8 -8 26 -18
66 -22 89 -6 41 -13 49 -27 35z"/>
<path d="M3335 11502 c-42 -5 -53 -19 -24 -31 54 -22 137 -43 159 -39 20 3 18
6 -21 34 -49 34 -70 41 -114 36z"/>
</g>
</svg>
